<?xml version="1.0" encoding="UTF-8"?>
<svg id="Layer_1" xmlns="http://www.w3.org/2000/svg" version="1.1" viewBox="0 0 875 322">
  <!-- Generator: Adobe Illustrator 29.2.1, SVG Export Plug-In . SVG Version: 2.1.0 Build 116)  -->
  <defs>
    <style>
      .st0, .st1 {
        fill: #204f96;
      }

      .st1, .st2 {
        fill-rule: evenodd;
      }

      .st3 {
        fill: #231f20;
      }

      .st2 {
        fill: #ffe01b;
      }
    </style>
  </defs>
  <polygon class="st2" points="8 143.1 95.5 220.8 95.5 80.4 8 3 8 143.1"/>
  <polygon class="st1" points="8 162.2 8 321.3 95.5 321.3 95.5 239.9 8 162.2"/>
  <path class="st1" d="M119.2,237.4"/>
  <path class="st1" d="M117.8,258.9"/>
  <rect class="st0" x="683.4" y="239" width="82.3" height="82.3"/>
  <path class="st1" d="M384.3,143.8c-46.3,0-83.8,36.8-83.8,81.9h177v-81.9h-93.2Z"/>
  <path class="st1" d="M384.9,321.3c-46.3,0-84.4-37.3-84.4-82.3h177v82.3h-92.6Z"/>
  <path class="st1" d="M492,227.1c0-46.1,37.5-83.3,82.5-83.3v177.5h-82.5v-94.2Z"/>
  <path class="st1" d="M670.1,227.1c0-46.1-36.9-83.3-82.3-83.3v177.5h82.3v-94.2Z"/>
  <path class="st1" d="M766.9,143.8c-45.7,0-83.5,36.8-83.5,81.9h176.7v-81.9h-93.1Z"/>
  <path class="st1" d="M202.7,321.3c46.1,0,83.3-37.3,83.3-82.3H110v82.3h92.7Z"/>
  <path class="st1" d="M193.5,143.8c-46.1,0-83.5,36.8-83.5,81.9h176.1v-81.9h-92.5Z"/>
  <g>
    <path class="st3" d="M347.9,70.9c1.6,6.2,5.8,17,10.5,32.4h.1c3.6-9.2,10.5-23.9,13.6-32.4h7.4c-.3,10-.6,20-.6,30.1s0,5.6.1,8.4h-5.1c.3-10,.7-20.8.7-33.5h-.1l-13.9,33.5h-5.3l-10.8-33.2h-.1c-1,10.9-1.8,21.5-2.2,33.2h-4.8c1.4-12.2,2.3-26,3.2-38.5h7.3Z"/>
    <path class="st3" d="M391.3,94.5v1.6c0,6.6,4.2,10.3,10.7,10.3s6-.9,8.8-1.8l-.8,4.2c-2.9.7-5.8,1.2-8.7,1.2-11.8,0-14.8-7.2-14.8-14.2s5-15.6,14.2-15.6,12.4,3.9,12.4,11.7,0,1.6-.2,2.6h-21.6ZM408.4,91.5c0-4.7-2.2-8.3-7.3-8.3s-8.6,3.3-9.5,8.3h16.8Z"/>
    <path class="st3" d="M424.7,86h.1c1.8-3.7,5.4-5.8,9.6-5.8s7.6,1.7,8.7,5.8c2-4,5.6-5.8,10-5.8s8.9,2.4,8.9,7.8-.9,9.9-1,21.4h-4.8c.3-6.5.9-12.9.9-19.3s-1.8-6-5.8-6-5,.7-6.9,4.7c-1.5,3.1-1.5,8.2-1.8,20.6h-5.1c.3-6.5.9-12.9.9-19.3s-1.8-6-5.8-6-5,.7-6.9,4.7c-1.5,3.1-1.5,8.2-1.8,20.6h-5.1c.8-9.1,1.2-20.2,1.3-28.6h4.8l-.3,5.1Z"/>
    <path class="st3" d="M474.5,109.4h-4.8c.9-12.8,1.3-25.6,1.6-38.5h5.2c-.3,3.5-.5,6.9-.7,10.4,2.8-.6,5.6-1.1,8.4-1.1,7.6,0,14.1,3.3,14.1,13.8s-4.2,16-13.5,16-8.4-2.1-10.1-6.5h-.1v5.8ZM475.1,95.8c0,6.8,3.2,10.6,8.8,10.6s9.5-6.5,9.5-12.4-3.4-10.3-10-10.3-5.4.6-7.9,1.4c0,3.1-.3,6.3-.3,10.6Z"/>
    <path class="st3" d="M509,94.5v1.6c0,6.6,4.2,10.3,10.7,10.3s6-.9,8.8-1.8l-.8,4.2c-2.9.7-5.8,1.2-8.7,1.2-11.8,0-14.8-7.2-14.8-14.2s5-15.6,14.2-15.6,12.4,3.9,12.4,11.7,0,1.6-.2,2.6h-21.6ZM526.1,91.5c0-4.7-2.2-8.3-7.3-8.3s-8.6,3.3-9.5,8.3h16.8Z"/>
    <path class="st3" d="M542.2,85.4h.1c1.8-3.5,4.4-5.2,8.6-5.2s1.6.1,2.3.3l.2,4.2c-1-.3-2.1-.5-3.2-.5-4.7,0-7.2,3.7-7.8,8-.6,3.7-.6,10.2-.6,17.2h-5.1c.5-8.2,1-16.6,1-28.6h4.8l-.2,4.6Z"/>
    <path class="st3" d="M583.6,70.9c-.9,12.8-1.1,25.7-1.4,38.5h-5.7c.7-12.1,1.4-24.3,1.4-38.5h5.6Z"/>
    <path class="st3" d="M601.9,70.9c1.6,6.2,5.8,17,10.5,32.4h.1c3.6-9.2,10.5-23.9,13.6-32.4h7.4c-.3,10-.6,20-.6,30.1s0,5.6.1,8.4h-5.1c.3-10,.7-20.8.7-33.5h-.1l-13.9,33.5h-5.3l-10.8-33.2h-.1c-1,10.9-1.8,21.5-2.2,33.2h-4.8c1.4-12.2,2.3-26,3.2-38.5h7.3Z"/>
    <path class="st3" d="M671.1,108.9c-3.3.6-6.6,1.2-9.9,1.2-11.7,0-20.3-6.5-20.3-18.8s8.7-20.9,21.8-20.9,6.2.4,9.3,1l.3,4.4c-3.1-.9-6.2-1.6-9.4-1.6-10,0-16.7,6.6-16.7,16.7s5.8,15.3,15.2,15.3,7-.7,10.4-1.7l-.7,4.4Z"/>
    <path class="st3" d="M719.3,87.8h13.8c-.4,5.4-.6,10.9-.9,20.4-4.8,1-9.7,1.8-14.6,1.8-12.1,0-21.1-5.6-21.1-18.6s4.4-21.1,23.1-21.1,8.1.6,12.1,1.5l.3,4.6c-3.9-1.3-8-2.2-12.1-2.2-11.9,0-18,7.8-18,17.1s6.1,14.9,15.7,14.9,6.6-.5,9.8-1.4l.5-13.2h-8.7l.2-3.7Z"/>
    <path class="st3" d="M746.5,85.4h.1c1.8-3.5,4.4-5.2,8.6-5.2s1.6.1,2.3.3l.2,4.2c-1-.3-2.1-.5-3.2-.5-4.7,0-7.2,3.7-7.8,8-.6,3.7-.6,10.2-.6,17.2h-5.1c.5-8.2,1-16.6,1-28.6h4.8l-.2,4.6Z"/>
    <path class="st3" d="M789,94.2c0,7.4-3.8,15.8-15.1,15.8s-14.2-5.5-14.2-14.2,5.6-15.6,15.2-15.6,14.1,5.3,14.1,14ZM764.6,96c0,5.9,2.9,10.4,9.5,10.4s10-5.7,10-12.3-3-10.4-9.6-10.4-9.9,5.3-9.9,12.2Z"/>
    <path class="st3" d="M817.6,104.1h-.1c-2.1,4.5-6.5,5.9-11,5.9s-10.8-2.5-10.8-9.3.9-13.3.9-19.9h5c-.3,6.1-1,12.2-1,18.5s3.1,6.9,7.3,6.9c6.2,0,9.2-3.7,10-9.2.6-4.3.6-11.2.7-16.2h5c-.6,9.5-1.3,19-1.3,28.6h-4.7l.2-5.3Z"/>
    <path class="st3" d="M831,122.1c.9-13.4,1.4-26.8,1.6-40.2,4.2-.9,8.4-1.7,13.4-1.7,7.6,0,14.1,3.3,14.1,13.8s-4.2,16-13.5,16-7.7-1.8-9.9-5.7h-.1c0,5.1-.4,10.3-.4,17.7h-5.1ZM837,95.8c0,6.8,3.2,10.6,8.8,10.6s9.5-6.5,9.5-12.4-3.4-10.3-10-10.3-5.4.6-7.9,1.4c0,3.1-.3,6.3-.3,10.6Z"/>
  </g>
</svg>