<?xml version="1.0" encoding="UTF-8"?>
<svg xmlns="http://www.w3.org/2000/svg" width="111.2" height="31.5" version="1.1" viewBox="0 0 111.2 31.5">
  <defs>
    <style>
      .cls-1 {
        fill: #58595b;
      }

      .cls-2 {
        fill: #ed1c2e;
      }
    </style>
  </defs>
  <!-- Generator: Adobe Illustrator 28.6.0, SVG Export Plug-In . SVG Version: 1.2.0 Build 709)  -->
  <g>
    <g id="Layer_1">
      <g>
        <g>
          <path class="cls-2" d="M95.4,0c-8.7,0-15.8,7.1-15.8,15.7s7.1,15.8,15.8,15.8,15.8-7,15.8-15.8S104.1,0,95.4,0ZM95.4,25.5l-12.3-2.5,3.3-12.1,9-9.3,9,9.3,3.3,12.1-12.3,2.5Z"/>
          <path class="cls-2" d="M100.6,13.7c-1.5-2-2-4.6-1.4-6.4-1.2-.5-2.4-.8-3.8-.8s-2.6.3-3.8.8c.6,1.9,0,4.5-1.4,6.4-1.1,1.5-2.6,2.6-4,3,.3,2.8,1.8,5.2,3.9,6.7,1.1-1.1,3.1-1.9,5.3-1.9s4.3.8,5.3,1.9c2.2-1.5,3.6-3.9,3.9-6.7-1.4-.4-2.9-1.5-4.1-3ZM95.4,18.6c-1.6,0-2.8-1.3-2.8-2.8s1.3-2.8,2.8-2.8,2.8,1.3,2.8,2.8c0,1.6-1.3,2.8-2.8,2.8Z"/>
        </g>
        <path class="cls-1" d="M6.7,17.7l-.9,3.9-1.7,7.8H0l3.3-15c.9-4.3,5.2-7.7,9.5-7.7s7.1,3.4,6.1,7.7c-1,4.3-5.2,7.7-9.5,7.7h-3.6l3-4h1.5c2,0,4-1.7,4.4-3.7s-.7-3.7-2.8-3.7-4,1.7-4.4,3.7l-.7,3.2Z"/>
        <path class="cls-1" d="M31.6,14.5c.5-2-.8-3.7-2.8-3.7s-4,1.7-4.5,3.7c-.5,2,.8,3.7,2.8,3.7h3.6l-3.1,4h-1.4c-4.3,0-7-3.4-6.1-7.7,1-4.3,5.2-7.7,9.5-7.7s7.1,3.4,6.1,7.7l-1.7,7.7h-4.2l1-4.4.7-3.2Z"/>
        <polygon class="cls-1" points="44.2 2 39.8 22 35.7 22 40.1 2 44.2 2"/>
        <path class="cls-1" d="M47,14.7c-.5,2,.7,3.7,2.8,3.7s4-1.7,4.4-3.7c.4-2-.8-3.7-2.8-3.7h-3.6l3.1-4h1.4c4.3,0,7.1,3.4,6.1,7.7-.9,4.3-5.2,7.7-9.5,7.7s-7-3.4-6.1-7.7l2.8-12.7h4.2l-2.8,12.7Z"/>
        <polygon class="cls-1" points="65.7 7.1 62.4 22 58.3 22 61.6 7.1 65.7 7.1"/>
        <path class="cls-1" d="M68.3,2h4.2l-1.1,5h5s-3.1,4-3.1,4h-2.7l-.8,3.4c-.4,2,.8,3.7,2.8,3.7h2.2s-.9,4-.9,4h-2.2c-4.3,0-7-3.4-6.1-7.7l2.8-12.4Z"/>
        <polygon class="cls-1" points="62 5.6 65 1.9 66.9 1.9 66.1 5.6 62 5.6"/>
      </g>
    </g>
  </g>
</svg>